<?xml version="1.0" encoding="utf-8"?>
<!-- Generator: Adobe Illustrator 24.0.2, SVG Export Plug-In . SVG Version: 6.00 Build 0)  -->
<svg version="1.1" id="Capa_1" xmlns="http://www.w3.org/2000/svg" xmlns:xlink="http://www.w3.org/1999/xlink" x="0px" y="0px"
	 viewBox="0 0 612 792" style="enable-background:new 0 0 612 792;" xml:space="preserve">
<style type="text/css">
	.st0{fill-rule:evenodd;clip-rule:evenodd;fill:#3F2B23;}
	.st1{fill:#FFFFFF;}
</style>
<path class="st0" d="M306,225.3c7.2,0.2,13,7.7,20.2,8.6c7.2,0.8,15.9-5,23-3.5c7,1.8,10.9,10.5,17.7,13c6.8,2.5,16.7-1.2,23.2,1.9
	c6.4,3.4,8.1,12.8,14.2,16.7c6.1,4,16.5,2.6,22.1,7.2c5.4,4.8,5,14.3,10,19.6c5,5.3,15.4,6.4,19.9,12.1c4.2,5.9,1.6,15.1,5.2,21.3
	c3.6,6.3,13.6,9.8,16.6,16.3c2.7,6.7-2,15,0.1,21.9c2.1,6.9,10.9,12.6,12.4,19.7c1.1,7.2-5.4,14.1-4.9,21.4c0.4,7.2,7.7,14.8,7.5,22
	c-0.6,7.2-8.5,12.5-9.7,19.7c-1.3,7.1,4.1,16.2,2.2,23.2c-2.2,6.9-11.1,10.2-14,16.9c-2.9,6.7,0.3,16.7-3.2,23.1
	c-3.8,6.2-13.2,7.4-17.5,13.2c-4.3,5.8-3.6,16.3-8.4,21.7c-5.1,5.2-14.6,4.1-20.1,8.8c-5.6,4.7-7.3,15-13.2,19.2
	c-6.1,3.8-15.1,0.7-21.6,3.9c-6.5,3.3-10.5,13-17.3,15.6c-6.9,2.3-14.9-2.8-21.9-1.2c-7.1,1.7-13.2,10.2-20.4,11.2
	c-7.2,0.7-13.8-6.2-21.1-6.2c-7.3,0-15.2,6.9-22.4,6.2c-7.2-1-12-9.2-19.1-10.9c-7.1-1.7-16.4,3.2-23.3,0.8c-6.7-2.6-9.6-11.7-16-15
	c-6.5-3.3-16.7-0.7-22.8-4.6c-6-4.1-6.6-13.6-12.2-18.3c-5.6-4.7-16.1-4.5-21.2-9.7c-4.9-5.4-3.3-14.8-7.6-20.6
	c-4.3-5.8-14.6-8.1-18.4-14.3c-3.5-6.4,0.2-15.1-2.7-21.8c-2.9-6.7-12.3-11.3-14.6-18.2c-1.9-7,3.7-14.7,2.4-21.8
	c-1.3-7.1-9.4-13.8-10-21c-0.3-7.2,7-13.4,7.4-20.7c0.4-7.2-6-15.6-4.9-22.8c1.4-7.1,9.9-11.5,12-18.4c2.1-6.9-2.2-16.6,0.5-23.3
	c3-6.6,12.3-8.9,15.9-15.2c3.6-6.3,1.7-16.6,5.9-22.5c4.5-5.7,14-5.8,18.9-11.1c5-5.3,5.5-15.8,10.9-20.6c5.7-4.5,14.9-2.4,21-6.4
	c6.1-4,9-14.1,15.4-17.5c6.5-3.1,15.1,1.1,21.9-1.4c6.8-2.5,12-11.7,19-13.5c7.1-1.5,14.4,4.5,21.6,3.7
	C291.6,233.2,298.8,225.4,306,225.3z"/>
<g>
	<path class="st1" d="M200,505.4c-0.6,1.1-1.5,1.9-2.7,2.6c-1.2,0.7-2.8,1-4.7,1h-3.8v8.8h-4.6V495h8.4c1.8,0,3.3,0.3,4.5,0.9
		c1.2,0.6,2.2,1.4,2.8,2.5c0.6,1.1,0.9,2.3,0.9,3.6C200.8,503.2,200.5,504.4,200,505.4z M195.2,504.4c0.6-0.6,0.9-1.4,0.9-2.4
		c0-2.2-1.2-3.3-3.7-3.3h-3.6v6.6h3.6C193.7,505.3,194.6,505,195.2,504.4z"/>
	<path class="st1" d="M204,503.8c0.7-1.4,1.7-2.5,3-3.3c1.3-0.8,2.7-1.1,4.2-1.1c1.3,0,2.5,0.3,3.5,0.8c1,0.5,1.8,1.2,2.4,2.1v-2.6
		h4.6v18.1h-4.6v-2.6c-0.6,0.8-1.4,1.6-2.4,2.1c-1,0.6-2.2,0.8-3.6,0.8c-1.5,0-2.9-0.4-4.2-1.2c-1.3-0.8-2.2-1.9-3-3.3
		c-0.7-1.4-1.1-3.1-1.1-4.9C202.9,506.8,203.3,505.2,204,503.8z M216.5,505.8c-0.4-0.8-1-1.4-1.8-1.8c-0.7-0.4-1.5-0.6-2.4-0.6
		c-0.8,0-1.6,0.2-2.4,0.6c-0.7,0.4-1.3,1-1.7,1.8c-0.4,0.8-0.7,1.7-0.7,2.8s0.2,2,0.7,2.9c0.4,0.8,1,1.4,1.8,1.9
		c0.7,0.4,1.5,0.7,2.3,0.7c0.8,0,1.6-0.2,2.4-0.6c0.7-0.4,1.3-1,1.8-1.8c0.4-0.8,0.7-1.7,0.7-2.9
		C217.1,507.6,216.9,506.6,216.5,505.8z"/>
	<path class="st1" d="M233.1,500.2c0.9-0.5,2-0.8,3.2-0.8v4.8h-1.2c-1.4,0-2.5,0.3-3.2,1c-0.7,0.7-1.1,1.9-1.1,3.5v9h-4.6v-18.1h4.6
		v2.8C231.4,501.5,232.1,500.8,233.1,500.2z"/>
	<path class="st1" d="M239.3,503.8c0.7-1.4,1.7-2.5,3-3.3c1.3-0.8,2.7-1.1,4.2-1.1c1.3,0,2.5,0.3,3.5,0.8c1,0.5,1.8,1.2,2.4,2.1
		v-2.6h4.6v18.1h-4.6v-2.6c-0.6,0.8-1.4,1.6-2.4,2.1c-1,0.6-2.2,0.8-3.6,0.8c-1.5,0-2.9-0.4-4.2-1.2c-1.3-0.8-2.2-1.9-3-3.3
		c-0.7-1.4-1.1-3.1-1.1-4.9C238.2,506.8,238.6,505.2,239.3,503.8z M251.8,505.8c-0.4-0.8-1-1.4-1.8-1.8c-0.7-0.4-1.5-0.6-2.4-0.6
		c-0.8,0-1.6,0.2-2.4,0.6c-0.7,0.4-1.3,1-1.7,1.8c-0.4,0.8-0.7,1.7-0.7,2.8s0.2,2,0.7,2.9c0.4,0.8,1,1.4,1.8,1.9
		c0.7,0.4,1.5,0.7,2.3,0.7c0.8,0,1.6-0.2,2.4-0.6c0.7-0.4,1.3-1,1.8-1.8c0.4-0.8,0.7-1.7,0.7-2.9
		C252.5,507.6,252.2,506.6,251.8,505.8z"/>
	<path class="st1" d="M281.1,517.7l-5-8.9h-2.2v8.9h-4.6V495h8.6c1.8,0,3.3,0.3,4.5,0.9c1.2,0.6,2.2,1.5,2.8,2.5
		c0.6,1.1,0.9,2.2,0.9,3.5c0,1.5-0.4,2.9-1.3,4.1c-0.9,1.2-2.2,2-3.9,2.5l5.5,9.2H281.1z M273.9,505.4h3.8c1.2,0,2.2-0.3,2.8-0.9
		c0.6-0.6,0.9-1.4,0.9-2.5c0-1-0.3-1.9-0.9-2.4c-0.6-0.6-1.5-0.9-2.8-0.9h-3.8V505.4z"/>
	<path class="st1" d="M294.8,498.6v5.7h7.7v3.6h-7.7v6h8.7v3.7h-13.2v-22.8h13.2v3.7H294.8z"/>
	<path class="st1" d="M311.2,517.2c-1.3-0.5-2.3-1.3-3-2.4c-0.7-1-1.1-2.2-1.1-3.6h4.9c0.1,0.9,0.4,1.7,1,2.2
		c0.6,0.5,1.4,0.8,2.5,0.8c1.1,0,1.9-0.3,2.5-0.8c0.6-0.5,0.9-1.2,0.9-2c0-0.7-0.2-1.2-0.6-1.7c-0.4-0.4-0.9-0.8-1.6-1
		c-0.6-0.2-1.5-0.5-2.6-0.8c-1.5-0.4-2.7-0.9-3.6-1.3c-0.9-0.4-1.7-1.1-2.4-1.9c-0.7-0.9-1-2-1-3.4c0-1.4,0.3-2.5,1-3.5
		c0.7-1,1.6-1.8,2.8-2.3c1.2-0.5,2.6-0.8,4.2-0.8c2.4,0,4.3,0.6,5.7,1.7c1.5,1.1,2.3,2.7,2.4,4.8h-5c0-0.8-0.4-1.4-1-1.9
		c-0.6-0.5-1.4-0.8-2.5-0.8c-0.9,0-1.6,0.2-2.1,0.7c-0.5,0.5-0.8,1.1-0.8,2c0,0.6,0.2,1.1,0.6,1.5c0.4,0.4,0.9,0.7,1.5,1
		c0.6,0.3,1.4,0.5,2.5,0.9c1.5,0.4,2.7,0.9,3.6,1.3c0.9,0.4,1.7,1.1,2.4,2c0.7,0.9,1,2,1,3.4c0,1.2-0.3,2.4-0.9,3.4
		c-0.6,1-1.6,1.9-2.8,2.5c-1.2,0.6-2.7,0.9-4.3,0.9C313.9,518,312.5,517.7,311.2,517.2z"/>
	<path class="st1" d="M332.1,498.6v5.7h7.7v3.6h-7.7v6h8.7v3.7h-13.2v-22.8h13.2v3.7H332.1z"/>
	<path class="st1" d="M356.6,517.7l-5-8.9h-2.2v8.9h-4.6V495h8.6c1.8,0,3.3,0.3,4.5,0.9c1.2,0.6,2.2,1.5,2.8,2.5
		c0.6,1.1,0.9,2.2,0.9,3.5c0,1.5-0.4,2.9-1.3,4.1c-0.9,1.2-2.2,2-3.9,2.5l5.5,9.2H356.6z M349.4,505.4h3.8c1.2,0,2.2-0.3,2.8-0.9
		c0.6-0.6,0.9-1.4,0.9-2.5c0-1-0.3-1.9-0.9-2.4c-0.6-0.6-1.5-0.9-2.8-0.9h-3.8V505.4z"/>
	<path class="st1" d="M386.3,495l-8.4,22.8h-5.6L364,495h4.9l6.3,18.1l6.2-18.1H386.3z"/>
	<path class="st1" d="M403,513.4h-9.1l-1.5,4.3h-4.8l8.2-22.8h5.3l8.2,22.8h-4.8L403,513.4z M401.8,509.7l-3.3-9.5l-3.3,9.5H401.8z"
		/>
	<path class="st1" d="M416,517.2c-1.3-0.5-2.3-1.3-3-2.4c-0.7-1-1.1-2.2-1.1-3.6h4.9c0.1,0.9,0.4,1.7,1,2.2c0.6,0.5,1.4,0.8,2.5,0.8
		c1.1,0,1.9-0.3,2.5-0.8c0.6-0.5,0.9-1.2,0.9-2c0-0.7-0.2-1.2-0.6-1.7c-0.4-0.4-0.9-0.8-1.6-1c-0.6-0.2-1.5-0.5-2.6-0.8
		c-1.5-0.4-2.7-0.9-3.6-1.3c-0.9-0.4-1.7-1.1-2.4-1.9c-0.7-0.9-1-2-1-3.4c0-1.4,0.3-2.5,1-3.5c0.7-1,1.6-1.8,2.8-2.3
		c1.2-0.5,2.6-0.8,4.2-0.8c2.4,0,4.3,0.6,5.7,1.7c1.5,1.1,2.3,2.7,2.4,4.8h-5c0-0.8-0.4-1.4-1-1.9c-0.6-0.5-1.4-0.8-2.5-0.8
		c-0.9,0-1.6,0.2-2.1,0.7c-0.5,0.5-0.8,1.1-0.8,2c0,0.6,0.2,1.1,0.6,1.5c0.4,0.4,0.9,0.7,1.5,1c0.6,0.3,1.4,0.5,2.5,0.9
		c1.5,0.4,2.7,0.9,3.6,1.3c0.9,0.4,1.7,1.1,2.4,2c0.7,0.9,1,2,1,3.4c0,1.2-0.3,2.4-0.9,3.4c-0.6,1-1.6,1.9-2.8,2.5
		c-1.2,0.6-2.7,0.9-4.3,0.9C418.7,518,417.3,517.7,416,517.2z"/>
</g>
</svg>
